<mxfile host="app.diagrams.net" modified="2024-05-01T13:16:45.466Z" agent="Mozilla/5.0 (Macintosh; Intel Mac OS X 10_15_7) AppleWebKit/605.1.15 (KHTML, like Gecko) Version/17.2 Safari/605.1.15" etag="2mlUUdWIU8ZBXRBcXaEK" version="24.2.8" type="device">
  <diagram name="Page-1" id="g4quX2xEzRCGqjBjcnTt">
    <mxGraphModel dx="1081" dy="902" grid="1" gridSize="10" guides="1" tooltips="1" connect="1" arrows="1" fold="1" page="1" pageScale="1" pageWidth="2336" pageHeight="1654" math="0" shadow="0">
      <root>
        <mxCell id="0" />
        <mxCell id="1" parent="0" />
        <mxCell id="FSFlXH1IXPTja9dtAvNK-12" value="&lt;p style=&quot;margin:0px;margin-top:4px;margin-left:10px;text-align:left;&quot;&gt;&lt;b&gt;act3&lt;/b&gt;   [Taking Lift]&lt;/p&gt;" style="html=1;shape=mxgraph.sysml.package;align=left;spacingLeft=5;verticalAlign=top;spacingTop=-3;labelX=109;html=1;overflow=fill;" vertex="1" parent="1">
          <mxGeometry x="201" y="100" width="690" height="520" as="geometry" />
        </mxCell>
        <mxCell id="1VGAK7dtnCJyhmM4IwNI-2" value="" style="ellipse;whiteSpace=wrap;html=1;aspect=fixed;strokeColor=#000000;fillColor=#000000;" parent="1" vertex="1">
          <mxGeometry x="291" y="160" width="30" height="30" as="geometry" />
        </mxCell>
        <mxCell id="1VGAK7dtnCJyhmM4IwNI-5" style="edgeStyle=orthogonalEdgeStyle;rounded=0;orthogonalLoop=1;jettySize=auto;html=1;exitX=0.5;exitY=1;exitDx=0;exitDy=0;entryX=0.5;entryY=0;entryDx=0;entryDy=0;entryPerimeter=0;dashed=1;" parent="1" source="1VGAK7dtnCJyhmM4IwNI-2" edge="1">
          <mxGeometry relative="1" as="geometry">
            <mxPoint x="305.995" y="320" as="targetPoint" />
          </mxGeometry>
        </mxCell>
        <mxCell id="FSFlXH1IXPTja9dtAvNK-8" style="edgeStyle=orthogonalEdgeStyle;rounded=0;orthogonalLoop=1;jettySize=auto;html=1;exitX=1;exitY=0.5;exitDx=0;exitDy=0;entryX=0;entryY=0.5;entryDx=0;entryDy=0;dashed=1;" edge="1" parent="1" source="1VGAK7dtnCJyhmM4IwNI-10" target="FSFlXH1IXPTja9dtAvNK-7">
          <mxGeometry relative="1" as="geometry" />
        </mxCell>
        <mxCell id="1VGAK7dtnCJyhmM4IwNI-10" value="Move along planned path while avoiding obstructions" style="rounded=1;whiteSpace=wrap;html=1;" parent="1" vertex="1">
          <mxGeometry x="381" y="530" width="150" height="60" as="geometry" />
        </mxCell>
        <mxCell id="1VGAK7dtnCJyhmM4IwNI-39" style="edgeStyle=orthogonalEdgeStyle;rounded=0;orthogonalLoop=1;jettySize=auto;html=1;exitX=0.5;exitY=0;exitDx=0;exitDy=0;entryX=0.5;entryY=1;entryDx=0;entryDy=0;" parent="1" edge="1">
          <mxGeometry relative="1" as="geometry">
            <mxPoint x="771" y="410" as="targetPoint" />
            <mxPoint x="771" y="530" as="sourcePoint" />
          </mxGeometry>
        </mxCell>
        <mxCell id="1VGAK7dtnCJyhmM4IwNI-40" value="Lift Arrived" style="edgeLabel;html=1;align=center;verticalAlign=middle;resizable=0;points=[];" parent="1VGAK7dtnCJyhmM4IwNI-39" vertex="1" connectable="0">
          <mxGeometry x="-0.1761" relative="1" as="geometry">
            <mxPoint y="-10" as="offset" />
          </mxGeometry>
        </mxCell>
        <mxCell id="1VGAK7dtnCJyhmM4IwNI-51" style="edgeStyle=orthogonalEdgeStyle;rounded=0;orthogonalLoop=1;jettySize=auto;html=1;exitX=0.5;exitY=0;exitDx=0;exitDy=0;entryX=0.5;entryY=1;entryDx=0;entryDy=0;" parent="1" edge="1">
          <mxGeometry relative="1" as="geometry">
            <mxPoint x="771" y="350" as="sourcePoint" />
            <mxPoint x="771" y="250" as="targetPoint" />
          </mxGeometry>
        </mxCell>
        <mxCell id="1VGAK7dtnCJyhmM4IwNI-52" value="In lift" style="edgeLabel;html=1;align=center;verticalAlign=middle;resizable=0;points=[];" parent="1VGAK7dtnCJyhmM4IwNI-51" vertex="1" connectable="0">
          <mxGeometry x="-0.1113" y="-4" relative="1" as="geometry">
            <mxPoint x="-4" as="offset" />
          </mxGeometry>
        </mxCell>
        <mxCell id="1VGAK7dtnCJyhmM4IwNI-61" style="edgeStyle=orthogonalEdgeStyle;rounded=0;orthogonalLoop=1;jettySize=auto;html=1;exitX=0;exitY=0.5;exitDx=0;exitDy=0;entryX=1;entryY=0.5;entryDx=0;entryDy=0;" parent="1" source="FSFlXH1IXPTja9dtAvNK-10" target="1VGAK7dtnCJyhmM4IwNI-60" edge="1">
          <mxGeometry relative="1" as="geometry">
            <mxPoint x="661" y="230" as="sourcePoint" />
          </mxGeometry>
        </mxCell>
        <mxCell id="FSFlXH1IXPTja9dtAvNK-11" value="Lift arrived" style="edgeLabel;html=1;align=center;verticalAlign=middle;resizable=0;points=[];" vertex="1" connectable="0" parent="1VGAK7dtnCJyhmM4IwNI-61">
          <mxGeometry x="-0.0044" relative="1" as="geometry">
            <mxPoint as="offset" />
          </mxGeometry>
        </mxCell>
        <mxCell id="1VGAK7dtnCJyhmM4IwNI-53" value="Entering Lift" style="rounded=1;whiteSpace=wrap;html=1;" parent="1" vertex="1">
          <mxGeometry x="683.5" y="350" width="175" height="60" as="geometry" />
        </mxCell>
        <mxCell id="1VGAK7dtnCJyhmM4IwNI-57" style="edgeStyle=orthogonalEdgeStyle;rounded=0;orthogonalLoop=1;jettySize=auto;html=1;exitX=0;exitY=0.5;exitDx=0;exitDy=0;entryX=0.5;entryY=0;entryDx=0;entryDy=0;" parent="1" source="1VGAK7dtnCJyhmM4IwNI-53" target="1VGAK7dtnCJyhmM4IwNI-56" edge="1">
          <mxGeometry relative="1" as="geometry">
            <Array as="points">
              <mxPoint x="553" y="380" />
            </Array>
            <mxPoint x="671" y="380" as="sourcePoint" />
          </mxGeometry>
        </mxCell>
        <mxCell id="1VGAK7dtnCJyhmM4IwNI-58" value="Unable to enter" style="edgeLabel;html=1;align=center;verticalAlign=middle;resizable=0;points=[];" parent="1VGAK7dtnCJyhmM4IwNI-57" vertex="1" connectable="0">
          <mxGeometry x="-0.0993" y="1" relative="1" as="geometry">
            <mxPoint x="27" y="-1" as="offset" />
          </mxGeometry>
        </mxCell>
        <mxCell id="1VGAK7dtnCJyhmM4IwNI-56" value="Calling for assistance" style="rounded=1;whiteSpace=wrap;html=1;" parent="1" vertex="1">
          <mxGeometry x="478.5" y="455" width="150" height="35" as="geometry" />
        </mxCell>
        <mxCell id="1VGAK7dtnCJyhmM4IwNI-71" style="edgeStyle=orthogonalEdgeStyle;rounded=0;orthogonalLoop=1;jettySize=auto;html=1;exitX=0.5;exitY=0;exitDx=0;exitDy=0;" parent="1" source="1VGAK7dtnCJyhmM4IwNI-60" edge="1">
          <mxGeometry relative="1" as="geometry">
            <Array as="points">
              <mxPoint x="499" y="180" />
            </Array>
            <mxPoint x="581" y="180.0344827586207" as="targetPoint" />
          </mxGeometry>
        </mxCell>
        <mxCell id="1VGAK7dtnCJyhmM4IwNI-72" value="Exited" style="edgeLabel;html=1;align=center;verticalAlign=middle;resizable=0;points=[];" parent="1VGAK7dtnCJyhmM4IwNI-71" vertex="1" connectable="0">
          <mxGeometry x="0.2854" y="1" relative="1" as="geometry">
            <mxPoint as="offset" />
          </mxGeometry>
        </mxCell>
        <mxCell id="1VGAK7dtnCJyhmM4IwNI-60" value="Exiting lift" style="rounded=1;whiteSpace=wrap;html=1;" parent="1" vertex="1">
          <mxGeometry x="411" y="240" width="175" height="55" as="geometry" />
        </mxCell>
        <mxCell id="1VGAK7dtnCJyhmM4IwNI-63" style="edgeStyle=orthogonalEdgeStyle;rounded=0;orthogonalLoop=1;jettySize=auto;html=1;exitX=0.5;exitY=1;exitDx=0;exitDy=0;entryX=0.5;entryY=0;entryDx=0;entryDy=0;" parent="1" source="1VGAK7dtnCJyhmM4IwNI-60" target="1VGAK7dtnCJyhmM4IwNI-56" edge="1">
          <mxGeometry relative="1" as="geometry">
            <Array as="points">
              <mxPoint x="499" y="380" />
              <mxPoint x="553" y="380" />
            </Array>
            <mxPoint x="498.5" y="310" as="sourcePoint" />
          </mxGeometry>
        </mxCell>
        <mxCell id="1VGAK7dtnCJyhmM4IwNI-64" value="Unable to exit" style="edgeLabel;html=1;align=center;verticalAlign=middle;resizable=0;points=[];" parent="1VGAK7dtnCJyhmM4IwNI-63" vertex="1" connectable="0">
          <mxGeometry x="-0.6635" y="1" relative="1" as="geometry">
            <mxPoint x="-1" as="offset" />
          </mxGeometry>
        </mxCell>
        <mxCell id="FSFlXH1IXPTja9dtAvNK-3" style="edgeStyle=orthogonalEdgeStyle;rounded=0;orthogonalLoop=1;jettySize=auto;html=1;exitX=0.5;exitY=1;exitDx=0;exitDy=0;entryX=0;entryY=0.5;entryDx=0;entryDy=0;dashed=1;" edge="1" parent="1" source="FSFlXH1IXPTja9dtAvNK-1" target="1VGAK7dtnCJyhmM4IwNI-10">
          <mxGeometry relative="1" as="geometry" />
        </mxCell>
        <mxCell id="FSFlXH1IXPTja9dtAvNK-1" value="Planning route using Ros package (Navigation Planner)" style="shape=rect;html=1;rounded=1;whiteSpace=wrap;align=center;" vertex="1" parent="1">
          <mxGeometry x="226" y="338" width="160" height="80" as="geometry" />
        </mxCell>
        <mxCell id="FSFlXH1IXPTja9dtAvNK-2" value="" style="rounded=0;whiteSpace=wrap;html=1;" vertex="1" parent="1">
          <mxGeometry x="296.5" y="320" width="19.01" height="18" as="geometry" />
        </mxCell>
        <mxCell id="FSFlXH1IXPTja9dtAvNK-6" style="edgeStyle=orthogonalEdgeStyle;rounded=0;orthogonalLoop=1;jettySize=auto;html=1;exitX=0.5;exitY=1;exitDx=0;exitDy=0;" edge="1" parent="1">
          <mxGeometry relative="1" as="geometry">
            <mxPoint x="811" y="630" as="sourcePoint" />
            <mxPoint x="811" y="630" as="targetPoint" />
          </mxGeometry>
        </mxCell>
        <mxCell id="FSFlXH1IXPTja9dtAvNK-7" value="Waiting at lift" style="rounded=1;whiteSpace=wrap;html=1;" vertex="1" parent="1">
          <mxGeometry x="683.5" y="530" width="175" height="60" as="geometry" />
        </mxCell>
        <mxCell id="FSFlXH1IXPTja9dtAvNK-9" value="" style="html=1;shape=mxgraph.sysml.actFinal;strokeWidth=2;verticalLabelPosition=bottom;verticalAlignment=top;" vertex="1" parent="1">
          <mxGeometry x="582" y="165" width="30" height="30" as="geometry" />
        </mxCell>
        <mxCell id="FSFlXH1IXPTja9dtAvNK-10" value="Waiting in lift" style="rounded=1;whiteSpace=wrap;html=1;" vertex="1" parent="1">
          <mxGeometry x="683.5" y="190" width="175" height="60" as="geometry" />
        </mxCell>
      </root>
    </mxGraphModel>
  </diagram>
</mxfile>
